<?xml version="1.0" encoding="UTF-8"?>
<svg viewBox="0 0 640 480" xmlns="http://www.w3.org/2000/svg">
 <defs>
  <filter id="a" color-interpolation-filters="sRGB">
   <feGaussianBlur stdDeviation="6"/>
   <feGaussianBlur stdDeviation="6"/>
  </filter>
 </defs>
 <g fill="none" stroke="#00bf00" stroke-linecap="round" stroke-linejoin="round" stroke-width="24">
  <path d="m50.85 280.57s-16.312-241.96 181.08-241.96 179.08 241.96 179.08 241.96"/>
  <path d="m50.85 280.57s-16.312-241.96 181.08-241.96 179.08 241.96 179.08 241.96" filter="url(#a)" opacity=".5"/>
 </g>
 <path d="m35.074 244.73l388.72 0.56-57.131 194.92-269.97 0.561-61.612-196.04z" fill="#7fff00"/>
 <g fill="none" stroke="#0eed0e" stroke-linecap="round" stroke-linejoin="round" stroke-width="16">
  <path d="m232.21 231.81l-0.5601 203.66"/>
  <path d="m32.767 232.21l57.2 203.98"/>
  <path d="m134.45 231.57l27.2 205.1"/>
  <path d="m429.41 228.85l-56.079 206.78"/>
  <path d="m331.09 230.45l-28.878 207.16"/>
 </g>
 <g fill="#5fbf00" stroke="#007f00" stroke-linecap="round" stroke-linejoin="round">
  <g stroke-width="11.877">
   <path d="m156.5 432.81s26.258 10 39.701 10 39.701-10 39.701-10"/>
   <path d="m227.39 432.81s26.258 10 39.701 10 39.701-10 39.701-10"/>
   <path d="m298.29 432.81s26.258 10 39.701 10 39.701-10 39.701-10"/>
   <path d="m85.602 432.81s26.258 10 39.701 10 39.701-10 39.701-10"/>
  </g>
  <g stroke-width="13.379">
   <path d="m190.91 426.59s27 7.4795 40.824 7.4795c13.823 0 40.824-7.4795 40.824-7.4795"/>
   <path d="m265.59 426.59s27 7.4795 40.824 7.4795c13.823 0 40.824-7.4795 40.824-7.4795"/>
   <path d="m128.17 426.59s27 7.4795 40.824 7.4795c13.823 0 40.824-7.4795 40.824-7.4795"/>
   <path d="m80.694 426.59s17.809 7.4795 27.217 7.4795c9.4076 0 27.217-7.4795 27.217-7.4795"/>
   <path d="m381.6 426.59s-17.809 7.4795-27.217 7.4795c-9.4076 0-27.217-7.4795-27.217-7.4795"/>
  </g>
  <g stroke-width="11.58">
   <path d="m152.59 416.81s27.623 10 41.764 10c14.142 0 41.764-10 41.764-10"/>
   <path d="m227.17 416.81s27.623 10 41.764 10c14.142 0 41.764-10 41.764-10"/>
   <path d="m301.75 416.81s27.623 10 41.764 10c14.142 0 41.764-10 41.764-10"/>
   <path d="m78.013 416.81s27.623 10 41.764 10c14.142 0 41.764-10 41.764-10"/>
  </g>
  <g stroke-width="11.421">
   <path d="m189.84 406.81s27.713 10 41.901 10 41.901-10 41.901-10"/>
   <path d="m266.5 406.81s27.713 10 41.901 10 41.901-10 41.901-10"/>
   <path d="m125.45 406.81s27.713 10 41.901 10 41.901-10 41.901-10"/>
   <path d="m76.723 406.81s18.279 10 27.935 10c9.6559 0 27.935-10 27.935-10"/>
   <path d="m385.57 406.81s-18.279 10-27.935 10c-9.6559 0-27.935-10-27.935-10"/>
  </g>
  <g stroke-width="11.419">
   <path d="m150.36 396.81s28.404 10 42.946 10 42.946-10 42.946-10"/>
   <path d="m227.05 396.81s28.404 10 42.946 10 42.946-10 42.946-10"/>
   <path d="m303.74 396.81s28.404 10 42.946 10 42.946-10 42.946-10"/>
   <path d="m73.665 396.81s28.404 10 42.946 10 42.946-10 42.946-10"/>
  </g>
  <g stroke-width="11.095">
   <path d="m187.38 382.81s29.368 10 44.404 10 44.404-10 44.404-10"/>
   <path d="m268.61 382.81s29.368 10 44.404 10c15.035 0 44.404-10 44.404-10"/>
   <path d="m119.14 382.81s29.368 10 44.404 10c15.035 0 44.404-10 44.404-10"/>
   <path d="m67.5 382.81s19.371 10 29.604 10 29.604-10 29.604-10"/>
   <path d="m394.79 382.81s-19.371 10-29.604 10-29.604-10-29.604-10"/>
  </g>
  <g stroke-width="11.145">
   <path d="m146.31 370.81s29.818 10 45.084 10 45.084-10 45.084-10"/>
   <path d="m226.82 370.81s29.818 10 45.084 10 45.084-10 45.084-10"/>
   <path d="m307.32 370.81s29.818 10 45.084 10 45.084-10 45.084-10"/>
   <path d="m65.8 370.81s29.818 10 45.084 10 45.084-10 45.084-10"/>
  </g>
  <g stroke-width="10.892">
   <path d="m185.73 356.81s30.473 10 46.074 10 46.074-10 46.074-10"/>
   <path d="m270.02 356.81s30.473 10 46.074 10 46.074-10 46.074-10"/>
   <path d="m114.92 356.81s30.473 10 46.074 10 46.074-10 46.074-10"/>
   <path d="m61.345 356.81s20.099 10 30.717 10c10.617 0 30.717-10 30.717-10"/>
   <path d="m400.95 356.81s-20.099 10-30.717 10c-10.617 0-30.717-10-30.717-10"/>
  </g>
  <g stroke-width="10.905">
   <path d="m142.52 344.81s31.143 10 47.087 10 47.087-10 47.087-10"/>
   <path d="m226.6 344.81s31.143 10 47.087 10 47.087-10 47.087-10"/>
   <path d="m310.69 344.81s31.143 10 47.087 10 47.087-10 47.087-10"/>
   <path d="m58.434 344.81s31.143 10 47.087 10 47.087-10 47.087-10"/>
  </g>
  <g stroke-width="10.7">
   <path d="m184.08 330.81s31.579 10 47.746 10 47.746-10 47.746-10"/>
   <path d="m271.43 330.81s31.579 10 47.746 10 47.746-10 47.746-10"/>
   <path d="m110.71 330.81s31.579 10 47.746 10 47.746-10 47.746-10"/>
   <path d="m55.184 330.81s20.829 10 31.832 10 31.831-10 31.831-10"/>
   <path d="m407.11 330.81s-20.829 10-31.832 10-31.832-10-31.832-10"/>
  </g>
  <g stroke-width="10.657">
   <path d="m138.31 318.81s32.614 10 49.311 10 49.311-10 49.311-10"/>
   <path d="m226.36 318.81s32.614 10 49.311 10 49.311-10 49.311-10"/>
   <path d="m314.42 318.81s32.614 10 49.311 10 49.311-10 49.311-10"/>
   <path d="m50.252 318.81s32.614 10 49.311 10 49.311-10 49.311-10"/>
  </g>
  <g stroke-width="10.495">
   <path d="m182.23 302.81s32.824 10 49.629 10 49.629-10 49.629-10"/>
   <path d="m273.02 302.81s32.824 10 49.629 10 49.629-10 49.629-10"/>
   <path d="m105.96 302.81s32.824 10 49.629 10 49.629-10 49.629-10"/>
   <path d="m48.244 302.81s21.65 10 33.087 10 33.087-10 33.087-10"/>
   <path d="m414.05 302.81s-21.65 10-33.087 10-33.087-10-33.087-10"/>
  </g>
  <g stroke-width="10.469">
   <path d="m134.93 290.81s33.794 10 51.094 10c17.301 0 51.094-10 51.094-10"/>
   <path d="m226.17 290.81s33.794 10 51.094 10c17.301 0 51.094-10 51.094-10"/>
   <path d="m317.41 290.81s33.794 10 51.094 10c17.301 0 51.094-10 51.094-10"/>
   <path d="m43.692 290.81s33.794 10 51.094 10c17.301 0 51.094-10 51.094-10"/>
  </g>
  <g stroke-width="10.218">
   <path d="m179.54 274.81s34.625 10 52.352 10 52.352-10 52.352-10"/>
   <path d="m275.32 274.81s34.625 10 52.352 10 52.352-10 52.352-10"/>
   <path d="m99.087 274.81s34.625 10 52.352 10 52.352-10 52.352-10"/>
   <path d="m38.207 274.81s22.838 10 34.902 10 34.903-10 34.903-10"/>
   <path d="m424.08 274.81s-22.838 10-34.902 10-34.902-10-34.902-10"/>
  </g>
  <g stroke-width="10.248">
   <path d="m130.71 262.81s35.268 10 53.324 10 53.324-10 53.324-10"/>
   <path d="m225.93 262.81s35.268 10 53.324 10 53.324-10 53.324-10"/>
   <path d="m321.16 262.81s35.268 10 53.324 10 53.324-10 53.324-10"/>
   <path d="m35.49 262.81s35.268 10 53.324 10 53.324-10 53.324-10"/>
  </g>
  <g stroke-width="10">
   <path d="m177.27 246.81s36.151 10 54.659 10 54.659-10 54.659-10"/>
   <path d="m277.27 246.81s36.151 10 54.659 10 54.659-10 54.659-10"/>
   <path d="m93.267 246.81s36.151 10 54.659 10 54.659-10 54.659-10"/>
   <path d="m29.705 246.81s23.845 10 36.441 10 36.441-10 36.441-10"/>
   <path d="m432.59 246.81s-23.845 10-36.441 10-36.441-10-36.441-10"/>
  </g>
  <g stroke-width="12.422">
   <path d="m130.72 238.18s35.265-6.8063 53.319-6.8063 53.319 6.8063 53.319 6.8063"/>
   <path d="m225.93 238.18s35.265-6.8063 53.319-6.8063 53.319 6.8063 53.319 6.8063"/>
   <path d="m321.15 238.18s35.265-6.8063 53.319-6.8063 53.319 6.8063 53.319 6.8063"/>
   <path d="m35.509 238.18s35.265-6.8063 53.319-6.8063 53.319 6.8063 53.319 6.8063"/>
  </g>
  <g stroke-width="10.122">
   <path d="m128.18 234.81s36.151 10 54.659 10 54.659-10 54.659-10"/>
   <path d="m225.79 234.81s36.151 10 54.659 10 54.659-10 54.659-10"/>
   <path d="m323.4 234.81s36.151 10 54.659 10 54.659-10 54.659-10"/>
   <path d="m30.579 234.81s36.151 10 54.659 10 54.659-10 54.659-10"/>
  </g>
 </g>
</svg>
