<?xml version="1.0" encoding="UTF-8"?>
<svg width="388.03" height="378.71" version="1.1" viewBox="0 0 388.03375 378.71375" xml:space="preserve" xmlns="http://www.w3.org/2000/svg"><defs><clipPath id="c"><path d="m113.36 391.31c0-83.463 69.282-151.12 154.75-151.12 85.465 0 154.75 67.659 154.75 151.12s-69.283 151.12-154.75 151.12c-85.464 0-154.75-67.66-154.75-151.12"/></clipPath><clipPath id="d"><path d="m0 600h800v-600h-800v600z"/></clipPath></defs><g transform="matrix(1.25 0 0 -1.25 -141.08 678.49)"><g clip-path="url(#c)"><g transform="translate(268.11 542.43)"><path d="m0 0c-85.463 0-154.74-67.712-154.74-151.24 0-83.525 69.282-151.24 154.74-151.24 85.464 0 154.75 67.715 154.75 151.24 0 83.53-69.284 151.24-154.75 151.24m37.134-154.5c-12.492 7.809-2.34 62.251 13.275 66.373-20 6.399-35.489 26.273-32.803 28.11 7.251-4.758 82.886-7.447 78.873-9.37-4.014-1.923 39.658-36.146 38.26-36.699-2.197 0.753-9.369 0-9.369 0s8.265-40.304 5.466-42.167c-1.589-1.059-5.316-0.437-10.013-1.923 5.794 54.951 5.198 40.832-22.782 48.775-4.761-81.077-38.907-54.69-33.577-74.963 5.466-2.342 67.153-57.782 74.962-74.962 17.178-27.33 6.246-138.21 6.246-138.21s-191.31-10.934-194.43 5.466c-3.125 16.398-35.399 28.974-42.947 27.329-9.923 2.1-40.604-28.111 6.247 196.77 5.465 21.084-21.864 89.8-15.617 92.14 6.247 2.342 10.152 0.783 14.055 14.837 0 0 0.817 41.589 32.796 24.207 11.564-21.264-15.617-19.522-15.617-19.522v-20.301l101.51-103.85s17.959 10.153 5.466 17.96" fill="#5a1013"/></g></g><g clip-path="url(#d)"><g transform="translate(422.79 391.31)"><path d="m0 0c0-83.386-69.269-150.98-154.71-150.98s-154.71 67.599-154.71 150.98c0 83.388 69.268 150.99 154.71 150.99s154.71-67.598 154.71-150.99z" fill="none" stroke="#978e92"/></g><g transform="translate(136.1 519)"><path d="m0 0c-2.666-2.109 4.374-8.321-2.02-9.648-6.394-1.328 62.333-13.051 62.333-13.051s74.052-15.504 64.996-13.609c-9.056 1.897-0.584 10.489 2.019 9.649 2.604-0.842-12.903 4.772-64.674 8.504 1.569-1.808-59.989 20.262-62.654 18.155" fill="#fff"/></g><g transform="translate(136.1 519)"><path d="m0 0c-2.666-2.109 4.374-8.321-2.02-9.648-6.394-1.328 62.333-13.051 62.333-13.051s74.052-15.504 64.996-13.609c-9.056 1.897-0.584 10.489 2.019 9.649 2.604-0.842-12.903 4.772-64.674 8.504 1.569-1.808-59.989 20.262-62.654 18.155z" fill="none" stroke="#978e92"/></g></g></g></svg>
